<?xml version="1.0" encoding="utf-8"?>
<!-- Generator: Adobe Illustrator 18.0.0, SVG Export Plug-In . SVG Version: 6.00 Build 0)  -->
<!DOCTYPE svg PUBLIC "-//W3C//DTD SVG 1.1//EN" "http://www.w3.org/Graphics/SVG/1.1/DTD/svg11.dtd">
<svg version="1.1" id="Layer_1" xmlns="http://www.w3.org/2000/svg" xmlns:xlink="http://www.w3.org/1999/xlink" x="0px" y="0px"
	 viewBox="0 0 64 64" enable-background="new 0 0 64 64" xml:space="preserve">
<g>
	<path d="M28.2,46.8L25.9,40c0,0-3.8,4.5-9.5,4.5c-5.1,0-8.7-4.7-8.7-12.2c0-9.6,4.5-13.1,9-13.1c6.5,0,8.5,4.5,10.3,10.2l2.3,7.8
		C31.7,44.9,36.1,51,48.8,51C57.8,51,64,48,64,40.2c0-6.3-3.4-9.6-9.7-11.2l-4.7-1.1c-3.2-0.8-4.2-2.2-4.2-4.5c0-2.7,2-4.2,5.2-4.2
		c3.5,0,5.4,1.4,5.7,4.8l7.3-0.9c-0.6-7.1-5.1-10-12.6-10c-6.6,0-13,2.7-13,11.2c0,5.3,2.4,8.7,8.5,10.3l5,1.3c3.7,0.9,5,2.6,5,4.9
		c0,2.9-2.6,4.1-7.6,4.1c-7.4,0-10.5-4.2-12.2-9.9l-2.4-7.8C31.2,16.8,26.2,13,16.5,13C5.7,13,0,20.3,0,32.7C0,44.6,5.7,51,16,51
		C24.3,51,28.2,46.8,28.2,46.8L28.2,46.8z"/>
</g>
</svg>
