<svg xmlns="http://www.w3.org/2000/svg" viewBox="0 0 32 32">
    <path id="steam" d="M15.97928,3.86968A12.13079,12.13079,0,1,1,4.41392,19.30593l4.60787,1.92215a3.4,3.4,0,0,0,6.73857-.6764c0-.05447-.00159-.10866-.00372-.1626L19.843,17.44673c.034.0008.06827.00187.10281.00187a4.57511,4.57511,0,1,0-4.53347-4.57519l.00053.05924-2.8653,4.19076q-.09445-.00518-.1897-.00532a3.362,3.362,0,0,0-1.915.597L4,15.02723A12.064,12.064,0,0,1,15.97928,3.86968M11.53311,22.27561,10.05648,21.66a2.54054,2.54054,0,0,0,4.65463-.12514,2.57983,2.57983,0,0,0,.004-1.97157A2.54951,2.54951,0,0,0,13.336,18.16563a2.52239,2.52239,0,0,0-1.882-.02869l1.52551.63628a1.90361,1.90361,0,0,1,1.01222,2.48088,1.87362,1.87362,0,0,1-2.45855,1.02151m6.1485-9.40741a2.26936,2.26936,0,1,0,2.26913-2.28958,2.27954,2.27954,0,0,0-2.26913,2.28958m5.28481.00531a3.02085,3.02085,0,1,1-3.02073-3.04835,3.03765,3.03765,0,0,1,3.02073,3.04835" fill="#262626"/>
</svg>
